<?xml version="1.0" encoding="UTF-8"?>
<svg xmlns="http://www.w3.org/2000/svg" xmlns:xlink="http://www.w3.org/1999/xlink" width="64pt" height="64pt" viewBox="0 0 64 64" version="1.1">
<g id="surface12531959">
<path style=" stroke:none;fill-rule:nonzero;fill:rgb(90.588235%,29.803922%,23.529412%);fill-opacity:1;" d="M 0.988281 32 C 0.988281 14.875 14.875 0.988281 32 0.988281 C 49.125 0.988281 63.011719 14.875 63.011719 32 C 63.011719 49.125 49.125 63.011719 32 63.011719 C 14.875 63.011719 0.988281 49.125 0.988281 32 Z M 0.988281 32 "/>
<path style=" stroke:none;fill-rule:nonzero;fill:rgb(100%,100%,100%);fill-opacity:1;" d="M 36.761719 32.351562 L 48.898438 18.261719 C 50.226562 16.726562 50.050781 14.414062 48.511719 13.085938 C 46.976562 11.761719 44.664062 11.9375 43.335938 13.476562 L 31.925781 26.726562 L 20.511719 13.476562 C 19.1875 11.9375 16.875 11.761719 15.335938 13.085938 C 13.800781 14.414062 13.625 16.726562 14.949219 18.261719 L 27.085938 32.351562 L 14.949219 46.4375 C 13.625 47.976562 13.800781 50.289062 15.335938 51.613281 C 16.023438 52.210938 16.886719 52.5 17.738281 52.5 C 18.761719 52.5 19.800781 52.0625 20.523438 51.226562 L 31.9375 37.976562 L 43.351562 51.226562 C 44.074219 52.0625 45.101562 52.5 46.136719 52.5 C 46.988281 52.5 47.835938 52.210938 48.539062 51.613281 C 50.074219 50.289062 50.25 47.976562 48.925781 46.4375 Z M 36.761719 32.351562 "/>
</g>
</svg>
